# xmcd CD database file
#
# Track frame offsets:
#	150
#	31150
#	53927
#	78600
#	99722
#	130625
#	152440
#	184140
#	201882
#
# Disc length: 3011 seconds
#
# Revision: 0
# Processed by: cddbd v1.5.1PL2 Copyright (c) Steve Scherf et al.
# Submitted via: CDex 1.50
#
DISCID=6f0bc109
DTITLE=Michel Sardaby - Intense Moment
DYEAR=1997
DGENRE=Jazz
TTITLE0=Narita Stream
TTITLE1=What Do You Care for Intense Moment
TTITLE2=Strolling at DUG
TTITLE3=Trane's Mood
TTITLE4=Crescente Blues #1
TTITLE5=Strong Point
TTITLE6=Crescente Blues #2
TTITLE7=Prelude for Children
TTITLE8=Just You and I
EXTD=YEAR: 1997
EXTT0=
EXTT1=
EXTT2=
EXTT3=
EXTT4=
EXTT5=
EXTT6=
EXTT7=
EXTT8=
PLAYORDER=
